<?xml version="1.0" encoding="UTF-8"?>
<svg id="Layer_1" data-name="Layer 1" xmlns="http://www.w3.org/2000/svg" xmlns:xlink="http://www.w3.org/1999/xlink" viewBox="0 0 546.67 152.11">
  <defs>
    <style>
      .cls-1 {
        fill: url(#linear-gradient);
      }

      .cls-2 {
        fill: #fff;
      }

      .cls-3 {
        fill: url(#linear-gradient-3);
      }

      .cls-4 {
        fill: url(#linear-gradient-4);
      }

      .cls-5 {
        fill: url(#linear-gradient-2);
      }

      .cls-6 {
        fill: url(#linear-gradient-5);
      }
    </style>
    <linearGradient id="linear-gradient" x1="56.61" y1="15.93" x2="78.74" y2="147.7" gradientUnits="userSpaceOnUse">
      <stop offset="0" stop-color="#91c955"/>
      <stop offset="1" stop-color="#00a263"/>
    </linearGradient>
    <linearGradient id="linear-gradient-2" x1="191.18" y1="-6.68" x2="213.32" y2="125.09" xlink:href="#linear-gradient"/>
    <linearGradient id="linear-gradient-3" x1="296.51" y1="-24.37" x2="318.65" y2="107.4" xlink:href="#linear-gradient"/>
    <linearGradient id="linear-gradient-4" x1="373.89" y1="141.89" x2="550.99" y2="51.23" gradientUnits="userSpaceOnUse">
      <stop offset="0" stop-color="#c64599"/>
      <stop offset="1" stop-color="#dd6526"/>
    </linearGradient>
    <linearGradient id="linear-gradient-5" x1="354.21" y1="103.44" x2="531.31" y2="12.79" xlink:href="#linear-gradient-4"/>
  </defs>
  <path class="cls-1" d="M129.12,56.97c-.09-.78-.23-1.54-.35-2.31-.31-1.99-.71-3.94-1.2-5.86-.1-.38-.13-.78-.24-1.17-.06-.23-.17-.44-.23-.67-1.44-5.03-3.46-9.8-6-14.24-.1-.18-.17-.38-.28-.56-.18-.31-.42-.58-.6-.89-1.08-1.78-2.24-3.5-3.48-5.17-.31-.41-.61-.84-.93-1.24-3.25-4.14-6.98-7.86-11.12-11.09-.24-.19-.49-.36-.73-.54-1.9-1.44-3.88-2.78-5.94-4.01-.16-.09-.29-.21-.45-.3-.09-.05-.19-.09-.28-.14-7.13-4.14-15.12-6.94-23.64-8.1,0,0,0,0-.01,0-2.89-.39-5.81-.67-8.8-.67C41.03,0,20.3,12.85,9.02,31.95c-.04,.08-.1,.14-.15,.22-.03,.05-.05,.1-.08,.15-2.66,4.57-4.77,9.47-6.25,14.66-.07,.23-.17,.43-.23,.66-.11,.38-.14,.78-.24,1.17-.49,1.92-.89,3.87-1.2,5.86-.12,.77-.26,1.53-.35,2.31-.31,2.58-.52,5.19-.52,7.85,0,0,0,.02,0,.02,0,0,0,.01,0,.02,0,.05,0,.09,0,.14,0,2.58,.2,5.11,.5,7.6,.1,.88,.26,1.75,.4,2.62,.3,1.84,.67,3.64,1.12,5.42,.12,.45,.16,.93,.28,1.38,.07,.26,.19,.5,.27,.76,1.46,5.07,3.52,9.86,6.1,14.34,.07,.12,.12,.25,.19,.37,.12,.2,.27,.37,.39,.57,1.21,2.02,2.53,3.97,3.95,5.84,.19,.25,.37,.5,.56,.75,3.25,4.16,6.98,7.9,11.14,11.16,.39,.31,.8,.59,1.19,.89,1.61,1.21,3.28,2.33,5.01,3.39,.38,.23,.72,.52,1.11,.75,.24,.14,.5,.23,.74,.37,1.88,1.07,3.81,2.04,5.8,2.92,.91,.4,1.85,.75,2.78,1.11,1.56,.6,3.13,1.17,4.74,1.66,.48,.15,.93,.36,1.42,.49,.84,.24,1.72,.33,2.57,.53,.96,.22,1.92,.42,2.9,.6,1.59,.29,3.18,.56,4.8,.73,.5,.05,1,.06,1.5,.1,1.79,.15,3.57,.36,5.4,.36h2.14c.73,0,1.5-.06,2.33-.18l15.04,22.55h28.5l-19.41-29.03c.56-.28,1.06-.65,1.61-.95,1.48-.78,2.9-1.64,4.31-2.53,1.15-.73,2.28-1.49,3.38-2.29,1.61-1.16,3.16-2.39,4.65-3.69,.31-.27,.65-.48,.95-.76,.29-.26,.52-.57,.8-.84,1.83-1.72,3.58-3.52,5.2-5.44,.07-.09,.16-.17,.23-.26,1.78-2.13,3.38-4.4,4.88-6.74,.09-.14,.21-.26,.29-.41,.13-.2,.21-.43,.34-.63,1.37-2.24,2.62-4.57,3.72-6.98,.06-.12,.12-.24,.17-.36,1.18-2.63,2.18-5.35,3-8.15,.02-.06,.05-.12,.07-.18,.05-.17,.06-.34,.11-.51,.66-2.33,1.17-4.72,1.56-7.15,.12-.72,.24-1.45,.33-2.18,.34-2.65,.56-5.32,.57-8.06,0-.04,0-.07,0-.11,0,0,0-.01,0-.02,0,0,0-.02,0-.02,0-2.66-.21-5.27-.52-7.85Z"/>
  <path class="cls-5" d="M237.1,82.1c0,1.63-.32,3.16-.96,4.59s-1.5,2.68-2.58,3.76-2.35,1.92-3.8,2.54-3,.91-4.63,.91-3.16-.3-4.6-.91c-1.42-.61-2.68-1.46-3.76-2.54s-1.94-2.33-2.58-3.76-.96-2.96-.96-4.59V22.48h-23.78v59.62c0,1.63-.31,3.16-.91,4.59-.62,1.43-1.48,2.68-2.58,3.76s-2.39,1.92-3.85,2.54-3,.91-4.63,.91-3.16-.3-4.6-.91c-1.42-.61-2.68-1.46-3.75-2.54-1.08-1.08-1.93-2.33-2.54-3.76-.62-1.43-.93-2.96-.93-4.59V22.48h-23.87v59.62c0,4.89,.94,9.51,2.8,13.86s4.42,8.12,7.65,11.32,7.01,5.74,11.32,7.61c4.31,1.86,8.94,2.79,13.9,2.79,4.49,0,8.75-.77,12.81-2.31,4.05-1.54,7.71-3.8,10.97-6.77,3.32,2.97,7.02,5.23,11.1,6.77s8.33,2.31,12.77,2.31c4.95,0,9.6-.93,13.93-2.79,4.34-1.87,8.14-4.4,11.37-7.61,3.24-3.2,5.79-6.98,7.65-11.32s2.8-8.96,2.8-13.86V22.48h-23.78v59.62Z"/>
  <polygon class="cls-3" points="351.26 22.48 273.2 22.48 273.2 46.26 312.63 46.26 273.2 115.93 351.26 115.93 351.26 92.15 311.84 92.15 351.26 22.48"/>
  <polygon class="cls-2" points="56.4 99.39 24.95 67.94 40.91 51.98 56.4 67.46 88.72 35.14 104.69 51.1 56.4 99.39"/>
  <path class="cls-4" d="M543.39,46.04c-2.18-5.39-5.19-9.97-9.01-13.72-3.81-3.76-8.26-6.66-13.33-8.7-.49-.2-1.03-.27-1.52-.44-4.64-1.66-9.53-2.62-14.74-2.62-.01,0-.03,0-.04,0s-5.23,0-5.24,0c-5.21,0-10.1,.95-14.74,2.62-.5,.18-1.03,.25-1.52,.44-5.07,2.04-9.51,4.94-13.33,8.7s-6.82,8.33-9.01,13.72-3.27,11.44-3.27,18.14v51.75h24.03v-23.91h40.96v23.91h24.03v-51.75c0-6.7-1.09-12.75-3.27-18.14Zm-20.76,22.2h-40.96v-4.07c0-2.51,.47-4.94,1.4-7.3,.94-2.36,2.22-4.48,3.85-6.34,1.63-1.87,3.54-3.37,5.72-4.5,.81-.42,1.65-.68,2.5-.94,1.35-.42,2.74-.7,4.18-.73,.08,0,.16-.03,.24-.03h5.2c.08,0,.16,.03,.24,.03,1.44,.03,2.83,.3,4.18,.73,.84,.26,1.69,.52,2.5,.94,2.18,1.14,4.09,2.63,5.72,4.5,1.63,1.86,2.91,3.97,3.85,6.34,.93,2.36,1.4,4.79,1.4,7.3v4.07Z"/>
  <path class="cls-6" d="M422.33,22.31v51.75c0,2.51-.47,4.94-1.4,7.3-.94,2.36-2.22,4.48-3.85,6.34-1.63,1.87-3.54,3.37-5.72,4.5-2.19,1.14-4.51,1.7-6.96,1.7s-4.85-.41-7.03-1.22-4.1-2.05-5.73-3.72c-1.63-1.66-2.92-3.73-3.89-6.21-.96-2.47-1.43-5.37-1.43-8.7V22.31h-23.78v51.75c0,6.7,1.09,12.75,3.27,18.14s5.19,9.97,9.01,13.72c3.81,3.76,8.26,6.66,13.33,8.7s10.49,3.06,16.26,3.06c2.74,0,5.47-.55,8.18-1.66,2.7-1.11,5.37-2.22,7.99-3.32-.87,2.16-2.01,4.16-3.41,5.99s-3.02,3.42-4.85,4.76c-1.84,1.34-3.84,2.39-5.99,3.15-2.16,.76-4.41,1.14-6.74,1.14l-33.4-.17,16.09,24.05,16.26,.16c6.58,0,12.77-1.26,18.53-3.76,5.77-2.51,10.83-5.92,15.17-10.23,4.34-4.32,7.76-9.35,10.27-15.12,2.5-5.77,3.78-11.94,3.84-18.53V22.31h-24.03Z"/>
</svg>